<?xml version="1.0" standalone="no"?>
<!DOCTYPE svg PUBLIC "-//W3C//DTD SVG 20010904//EN"
 "http://www.w3.org/TR/2001/REC-SVG-20010904/DTD/svg10.dtd">
<svg version="1.0" xmlns="http://www.w3.org/2000/svg"
 width="500.000000pt" height="500.000000pt" viewBox="0 0 500.000000 500.000000"
 preserveAspectRatio="xMidYMid meet">
<metadata>
Created by potrace 1.11, written by Peter Selinger 2001-2013
</metadata>
<g transform="translate(0.000000,500.000000) scale(0.100000,-0.100000)"
fill="#000000" stroke="none">
<path d="M0 2500 l0 -2500 2500 0 2500 0 0 2500 0 2500 -2500 0 -2500 0 0
-2500z m3440 635 l0 -1105 -225 0 -225 0 0 1105 0 1105 225 0 225 0 0 -1105z
m-630 -250 l0 -855 -210 0 -210 0 0 855 0 855 210 0 210 0 0 -855z m-600 -230
l0 -625 -200 0 -200 0 0 625 0 625 200 0 200 0 0 -625z m-580 -205 l0 -420
-195 0 -195 0 0 420 0 420 195 0 195 0 0 -420z m-274 -681 c102 -31 124 -45
125 -77 1 -30 3 -26 19 36 10 38 13 42 43 42 44 -1 131 -49 135 -76 2 -11 -8
-58 -21 -105 -14 -46 -44 -169 -68 -273 -25 -106 -49 -191 -57 -193 -20 -8
-79 6 -103 26 l-22 18 17 134 c10 74 26 181 37 238 10 58 17 106 16 108 -5 4
-57 -169 -107 -357 -23 -85 -47 -160 -54 -166 -15 -16 -102 10 -115 34 -8 15
27 218 53 312 7 26 -105 -177 -145 -261 -24 -52 -31 -55 -90 -39 -45 13 -54
31 -82 176 -12 63 -25 114 -28 114 -4 0 -16 -66 -28 -147 -29 -197 -30 -199
-66 -195 -17 2 -43 11 -60 21 -26 14 -30 24 -33 64 -7 105 51 539 75 563 10
10 26 12 56 8 54 -9 142 -41 156 -57 5 -7 17 -62 26 -122 25 -178 17 -178 104
-9 75 142 117 204 139 204 5 0 41 -9 78 -21z m2060 -14 c80 -39 97 -70 91
-166 -3 -42 -10 -86 -16 -98 -14 -25 -49 -27 -91 -6 -38 20 -50 43 -50 97 0
24 -6 53 -14 64 -14 19 -15 19 -40 -5 -32 -30 -89 -140 -110 -210 -9 -30 -16
-83 -16 -118 0 -113 28 -129 105 -63 25 22 56 40 68 41 105 5 120 -32 47 -114
-89 -101 -296 -82 -360 33 -22 40 -25 56 -24 140 0 76 6 111 27 173 42 121
107 212 182 252 43 23 131 14 201 -20z m575 4 c67 -34 67 -32 16 -207 -42
-140 -93 -329 -111 -404 -5 -23 -12 -28 -37 -28 -17 0 -46 7 -65 16 -39 18
-43 42 -23 134 6 28 9 53 7 55 -5 5 -107 -10 -114 -17 -2 -3 -12 -45 -22 -93
-9 -48 -22 -90 -29 -92 -21 -8 -80 6 -104 26 l-23 18 17 99 c9 54 26 186 39
293 14 121 27 199 36 207 11 11 21 10 63 -6 108 -41 112 -49 80 -178 -10 -43
-22 -90 -25 -106 l-7 -29 56 6 c32 3 59 7 61 10 2 2 18 66 35 143 17 76 37
149 45 162 16 25 41 23 105 -9z m-1884 2 c17 -17 24 -18 108 -5 50 7 150 16
222 20 121 6 135 5 153 -11 21 -19 47 -91 37 -101 -3 -3 -38 -10 -77 -14 -40
-4 -75 -12 -80 -16 -8 -9 -90 -342 -111 -452 -6 -34 -16 -65 -21 -68 -12 -8
-104 24 -119 42 -15 18 -2 145 34 341 l23 122 -23 -4 c-13 -3 -35 -7 -49 -10
-15 -4 -36 0 -49 9 -23 15 -26 12 -175 -175 -84 -104 -151 -191 -149 -193 2
-2 29 0 59 5 68 11 86 5 105 -31 31 -60 26 -64 -104 -88 -66 -12 -130 -22
-143 -22 -31 0 -108 65 -108 91 0 23 95 170 205 318 41 56 69 101 61 101 -7 0
-37 -5 -66 -10 -44 -8 -58 -7 -77 5 -30 20 -71 101 -57 115 18 18 208 46 331
49 39 1 57 -4 70 -18z m928 -5 c9 -13 19 -40 22 -60 7 -44 5 -45 -125 -60
l-96 -11 -18 -55 c-27 -89 -27 -89 41 -83 59 6 60 5 80 -28 12 -19 21 -46 21
-61 0 -25 -4 -27 -72 -38 -130 -21 -131 -21 -145 -68 -11 -41 -11 -42 10 -37
12 3 51 6 86 7 57 3 65 1 82 -22 10 -14 20 -36 21 -50 3 -24 -1 -26 -102 -47
-146 -31 -164 -30 -216 13 -33 26 -44 42 -44 63 0 25 50 390 65 478 5 27 12
34 43 42 75 21 199 39 264 40 61 1 69 -1 83 -23z"/>
</g>
</svg>
